<svg xmlns="http://www.w3.org/2000/svg" viewBox="0 0 32 32">
  <defs>
    <linearGradient id="g" x1="0" y1="0" x2="1" y2="1">
      <stop offset="0" stop-color="#e6b84a"/>
      <stop offset="1" stop-color="#b22a22"/>
    </linearGradient>
  </defs>
  <rect width="32" height="32" rx="7" fill="#15171f"/>
  <path d="M9 24V8h7.4c3 0 5 1.6 5 4.2 0 1.8-1 3-2.6 3.5 1.9.4 3.1 1.8 3.1 3.8 0 2.8-2.1 4.5-5.3 4.5H9Zm3.4-9.6h3.3c1.3 0 2.1-.7 2.1-1.8s-.8-1.8-2.1-1.8h-3.3v3.6Zm0 6.8h3.5c1.4 0 2.3-.7 2.3-1.9s-.9-1.9-2.3-1.9h-3.5v3.8Z" fill="url(#g)"/>
</svg>
